<svg width="20" height="20" viewBox="0 0 20 20" fill="none" xmlns="http://www.w3.org/2000/svg">
<rect x="17" y="2" width="1" height="5" fill="black"/>
<rect x="17" y="13" width="1" height="4" fill="black"/>
<rect x="15" y="14" width="1" height="2" fill="black"/>
<rect x="16" y="3" width="1" height="3" fill="black"/>
<rect x="16" y="14" width="1" height="1" fill="black"/>
<rect x="18" y="2" width="1" height="1" fill="black"/>
<rect x="18" y="13" width="1" height="1" fill="black"/>
<rect x="18" y="6" width="1" height="1" fill="black"/>
<rect x="18" y="16" width="1" height="1" fill="black"/>
<rect x="18" y="7" width="1" height="1" fill="black"/>
<rect x="18" y="17" width="1" height="1" fill="black"/>
<rect x="19" y="1" width="1" height="1" fill="black"/>
<rect x="19" y="12" width="1" height="1" fill="black"/>
<path fill-rule="evenodd" clip-rule="evenodd" d="M14 2H2V7H14V2ZM4 3H3V4H4V3Z" fill="black"/>
<path fill-rule="evenodd" clip-rule="evenodd" d="M15 13H6V17H15V13ZM8 14H7V15H8V14Z" fill="black"/>
<rect y="3" width="2" height="3" fill="black"/>
<rect x="5" y="14" width="1" height="2" fill="black"/>
<rect x="14" y="3" width="1" height="3" fill="black"/>
<rect x="15" y="4" width="1" height="1" fill="black"/>
<rect x="6" width="4" height="1" fill="black"/>
<rect x="10" y="11" width="2" height="1" fill="black"/>
<rect x="6" y="8" width="2" height="1" transform="rotate(90 6 8)" fill="black"/>
<rect x="9" y="8" width="2" height="1" transform="rotate(90 9 8)" fill="black"/>
<rect x="10" y="19" width="1" height="1" transform="rotate(90 10 19)" fill="black"/>
<rect x="12" y="18" width="1" height="1" transform="rotate(90 12 18)" fill="black"/>
<rect width="1" height="1" transform="matrix(1 -3.85215e-08 -3.85215e-08 -1 13 9)" fill="black"/>
<rect width="1" height="1" transform="matrix(1 -3.85215e-08 -3.85215e-08 -1 16 19)" fill="black"/>
<rect width="1" height="1" transform="matrix(1 -3.85215e-08 -3.85215e-08 -1 10 2)" fill="black"/>
<rect width="1" height="1" transform="matrix(1 -3.85215e-08 -3.85215e-08 -1 13 13)" fill="black"/>
<rect width="1" height="1" transform="matrix(1 -3.85215e-08 -3.85215e-08 -1 11 1)" fill="black"/>
<rect width="1" height="1" transform="matrix(1 -3.85215e-08 -3.85215e-08 -1 14 12)" fill="black"/>
<rect x="5" y="1" width="4" height="1" fill="black"/>
<rect x="9" y="12" width="2" height="1" fill="black"/>
<rect x="8" y="7" width="2" height="1" transform="rotate(90 8 7)" fill="black"/>
<rect x="9" y="17" width="2" height="1" transform="rotate(90 9 17)" fill="black"/>
<rect x="11" y="17" width="1" height="1" transform="rotate(90 11 17)" fill="black"/>
<rect x="5" y="7" width="1" height="1" transform="rotate(90 5 7)" fill="black"/>
<rect width="2" height="1" transform="matrix(1 -3.85215e-08 -3.85215e-08 -1 11 8)" fill="black"/>
<rect width="2" height="1" transform="matrix(1 -3.85215e-08 -3.85215e-08 -1 14 18)" fill="black"/>
</svg>
