<svg width="20" height="18" viewBox="0 0 20 18" fill="none" xmlns="http://www.w3.org/2000/svg">
<rect x="14" y="1" width="1" height="1" fill="black"/>
<rect x="11" y="10" width="1" height="1" fill="black"/>
<rect y="8" width="2" height="1" fill="black"/>
<rect x="12" y="17" width="1" height="1" fill="black"/>
<rect y="3" width="2" height="1" fill="black"/>
<rect x="15" width="2" height="1" fill="black"/>
<rect x="12" y="9" width="2" height="1" fill="black"/>
<rect x="2" y="7" width="2" height="1" fill="black"/>
<rect y="15" width="2" height="1" fill="black"/>
<rect x="13" y="16" width="2" height="1" fill="black"/>
<rect x="2" y="2" width="2" height="1" fill="black"/>
<rect x="8" y="2" width="2" height="1" fill="black"/>
<rect x="5" y="12" width="2" height="1" fill="black"/>
<rect width="2" height="1" transform="matrix(-1 0 0 1 17 12)" fill="black"/>
<rect x="10" y="3" width="2" height="1" fill="black"/>
<rect x="7" y="13" width="2" height="1" fill="black"/>
<rect width="2" height="1" transform="matrix(-1 0 0 1 15 13)" fill="black"/>
<rect x="12" y="4" width="4" height="1" fill="black"/>
<rect x="9" y="14" width="4" height="1" fill="black"/>
<rect x="17" y="1" width="2" height="1" fill="black"/>
<rect x="4" y="8" width="2" height="1" fill="black"/>
<rect x="2" y="16" width="2" height="1" fill="black"/>
<rect x="15" y="17" width="2" height="1" fill="black"/>
<rect x="4" y="1" width="4" height="1" fill="black"/>
<rect x="3" y="11" width="2" height="1" fill="black"/>
<rect x="17" y="11" width="3" height="1" fill="black"/>
</svg>
