<svg width="14" height="20" viewBox="0 0 14 20" fill="none" xmlns="http://www.w3.org/2000/svg">
<rect x="6" y="11" width="1" height="5" fill="black"/>
<rect x="3" y="6" width="4" height="2" transform="rotate(-90 3 6)" fill="black"/>
<rect x="6" y="8" width="6" height="3" transform="rotate(-90 6 8)" fill="black"/>
<rect x="10" y="6" width="4" height="2" transform="rotate(-90 10 6)" fill="black"/>
<rect x="11" y="17" width="6" height="2" transform="rotate(-90 11 17)" fill="black"/>
<rect x="1" y="16" width="5" height="2" transform="rotate(-90 1 16)" fill="black"/>
<rect y="13" width="3" height="1" transform="rotate(-90 0 13)" fill="black"/>
<rect x="13" y="13" width="3" height="1" transform="rotate(-90 13 13)" fill="black"/>
<rect x="8" y="20" width="3" height="1" transform="rotate(-90 8 20)" fill="black"/>
<rect x="3" y="18" width="4" height="1" transform="rotate(-90 3 18)" fill="black"/>
<rect x="5" y="8" width="4" height="1" transform="rotate(-90 5 8)" fill="black"/>
<rect x="9" y="8" width="5" height="1" transform="rotate(-90 9 8)" fill="black"/>
<rect x="7" y="11" width="4" height="1" transform="rotate(-90 7 11)" fill="black"/>
<rect x="7" y="20" width="6" height="1" transform="rotate(-90 7 20)" fill="black"/>
<rect x="7" y="2" width="1" height="2" transform="rotate(-90 7 2)" fill="black"/>
<rect x="10" y="2" width="1" height="1" transform="rotate(-90 10 2)" fill="black"/>
<rect x="7" y="1" width="1" height="1" transform="rotate(-90 7 1)" fill="black"/>
<rect x="4" y="2" width="1" height="1" transform="rotate(-90 4 2)" fill="black"/>
<rect x="6" y="19" width="1" height="1" transform="rotate(-90 6 19)" fill="black"/>
<rect x="4" y="7" width="1" height="1" transform="rotate(-90 4 7)" fill="black"/>
<rect x="10" y="7" width="1" height="1" transform="rotate(-90 10 7)" fill="black"/>
<rect x="9" y="19" width="5" height="2" transform="rotate(-90 9 19)" fill="black"/>
<rect x="4" y="19" width="2" height="2" transform="rotate(-90 4 19)" fill="black"/>
</svg>
