<svg width="13" height="20" viewBox="0 0 13 20" fill="none" xmlns="http://www.w3.org/2000/svg">
<rect x="7" y="16" width="1" height="4" fill="black"/>
<rect x="6" y="18" width="1" height="1" fill="black"/>
<rect x="5" y="16" width="1" height="2" fill="black"/>
<rect width="1" height="2" transform="matrix(-1 0 0 1 10 18)" fill="black"/>
<rect x="3" y="13" width="1" height="2" fill="black"/>
<rect width="1" height="2" transform="matrix(-1 0 0 1 12 15)" fill="black"/>
<rect x="4" y="14" width="1" height="3" fill="black"/>
<rect width="1" height="3" transform="matrix(-1 0 0 1 11 16)" fill="black"/>
<rect x="8" y="14" width="1" height="3" fill="black"/>
<rect x="9" y="11" width="1" height="3" fill="black"/>
<rect x="8" y="9" width="1" height="2" fill="black"/>
<rect x="5" y="2" width="1" height="2" fill="black"/>
<rect x="5" y="9" width="1" height="2" fill="black"/>
<rect x="4" y="10" width="1" height="2" fill="black"/>
<rect x="7" y="2" width="1" height="2" fill="black"/>
<rect x="8" y="1" width="1" height="2" fill="black"/>
<rect x="6" width="1" height="2" fill="black"/>
<rect x="11" y="5" width="1" height="2" transform="rotate(90 11 5)" fill="black"/>
<rect x="13" y="4" width="1" height="2" transform="rotate(90 13 4)" fill="black"/>
<rect x="3" y="9" width="1" height="2" transform="rotate(90 3 9)" fill="black"/>
<rect x="4" y="2" width="2" height="1" transform="rotate(90 4 2)" fill="black"/>
<rect x="5" y="8" width="1" height="1" transform="rotate(90 5 8)" fill="black"/>
<rect x="8" y="9" width="1" height="1" transform="rotate(90 8 9)" fill="black"/>
<rect x="9" y="4" width="1" height="1" transform="rotate(90 9 4)" fill="black"/>
<rect x="10" y="3" width="1" height="1" transform="rotate(90 10 3)" fill="black"/>
<rect x="5" y="4" width="1" height="1" transform="rotate(90 5 4)" fill="black"/>
<rect x="3" y="1" width="1" height="1" transform="rotate(90 3 1)" fill="black"/>
<rect x="12" y="2" width="1" height="2" transform="rotate(90 12 2)" fill="black"/>
<rect x="11" y="7" width="1" height="2" transform="rotate(90 11 7)" fill="black"/>
<rect x="8" y="5" width="3" height="3" transform="rotate(90 8 5)" fill="black"/>
<rect x="4" y="7" width="1" height="2" transform="rotate(90 4 7)" fill="black"/>
<rect x="2" y="6" width="1" height="2" transform="rotate(90 2 6)" fill="black"/>
<rect x="4" y="5" width="1" height="2" transform="rotate(90 4 5)" fill="black"/>
<rect x="3" y="4" width="1" height="2" transform="rotate(90 3 4)" fill="black"/>
<rect x="12" y="8" width="1" height="2" transform="rotate(90 12 8)" fill="black"/>
</svg>
