<svg width="18" height="20" viewBox="0 0 18 20" fill="none" xmlns="http://www.w3.org/2000/svg">
<rect width="1" height="3" transform="matrix(-1 0 0 1 12 13)" fill="black"/>
<rect width="1" height="2" transform="matrix(-1 0 0 1 13 11)" fill="black"/>
<rect width="1" height="7" transform="matrix(-1 0 0 1 14 4)" fill="black"/>
<rect x="5" y="6" width="3" height="1" transform="rotate(90 5 6)" fill="black"/>
<rect x="11" y="8" width="2" height="1" transform="rotate(90 11 8)" fill="black"/>
<rect x="11" y="3" width="1" height="2" transform="rotate(90 11 3)" fill="black"/>
<rect x="12" y="5" width="1" height="1" transform="rotate(90 12 5)" fill="black"/>
<rect x="13" y="6" width="1" height="1" transform="rotate(90 13 6)" fill="black"/>
<rect x="3" y="5" width="5" height="1" transform="rotate(90 3 5)" fill="black"/>
<rect x="9" y="6" width="5" height="1" transform="rotate(90 9 6)" fill="black"/>
<rect x="1" y="6" width="3" height="1" transform="rotate(90 1 6)" fill="black"/>
<rect x="7" y="8" width="2" height="1" transform="rotate(90 7 8)" fill="black"/>
<rect width="5" height="2" transform="matrix(4.85682e-08 -1 -1 -3.93403e-08 17 16)" fill="black"/>
<rect width="3" height="1" transform="matrix(4.37114e-08 -1 -1 -4.37114e-08 18 13)" fill="black"/>
<rect width="3" height="1" transform="matrix(4.85682e-08 -1 -1 -3.93403e-08 10 20)" fill="black"/>
<rect width="4" height="1" transform="matrix(4.85682e-08 -1 -1 -3.93403e-08 15 18)" fill="black"/>
<rect x="4" y="5" width="2" height="1" transform="rotate(90 4 5)" fill="black"/>
<rect x="10" y="7" width="1" height="1" transform="rotate(90 10 7)" fill="black"/>
<rect x="2" y="16" width="1" height="1" transform="rotate(90 2 16)" fill="black"/>
<rect x="9" y="18" width="1" height="1" transform="rotate(90 9 18)" fill="black"/>
<rect x="2" y="5" width="3" height="1" transform="rotate(90 2 5)" fill="black"/>
<rect x="8" y="7" width="2" height="1" transform="rotate(90 8 7)" fill="black"/>
<rect x="3" y="2" width="4" height="1" transform="rotate(90 3 2)" fill="black"/>
<rect width="5" height="1" transform="matrix(4.85682e-08 -1 -1 -3.93403e-08 11 20)" fill="black"/>
<rect width="1" height="1" transform="matrix(4.85682e-08 -1 -1 -3.93403e-08 12 19)" fill="black"/>
<rect width="2" height="2" transform="matrix(4.85682e-08 -1 -1 -3.93403e-08 14 19)" fill="black"/>
<rect width="2" height="2" transform="matrix(4.85682e-08 -1 -1 -3.93403e-08 8 19)" fill="black"/>
<rect width="1" height="2" transform="matrix(4.85682e-08 -1 -1 -3.93403e-08 6 17)" fill="black"/>
<rect width="1" height="2" transform="matrix(4.85682e-08 -1 -1 -3.93403e-08 4 16)" fill="black"/>
<rect width="1" height="2" transform="matrix(4.85682e-08 -1 -1 -3.93403e-08 6 1)" fill="black"/>
<rect width="1" height="2" transform="matrix(4.85682e-08 -1 -1 -3.93403e-08 8 2)" fill="black"/>
<rect width="1" height="2" transform="matrix(4.85682e-08 -1 -1 -3.93403e-08 11 1)" fill="black"/>
<rect width="1" height="1" transform="matrix(4.85682e-08 -1 -1 -3.93403e-08 12 2)" fill="black"/>
<rect width="1" height="1" transform="matrix(4.85682e-08 -1 -1 -3.93403e-08 9 3)" fill="black"/>
<rect width="1" height="1" transform="matrix(4.85682e-08 -1 -1 -3.93403e-08 4 2)" fill="black"/>
<rect width="2" height="1" transform="matrix(4.85682e-08 -1 -1 -3.93403e-08 13 4)" fill="black"/>
<rect width="3" height="1" transform="matrix(4.85682e-08 -1 -1 -3.93403e-08 8 6)" fill="black"/>
</svg>
