<svg width="24" height="20" viewBox="0 0 24 20" fill="none" xmlns="http://www.w3.org/2000/svg">
<rect width="2" height="1" transform="matrix(-1 3.17865e-08 3.17865e-08 1 24 13.5)" fill="black"/>
<rect width="2" height="1" transform="matrix(-1 3.17865e-08 3.17865e-08 1 22 14.5)" fill="black"/>
<rect x="10" y="17" width="2" height="1" fill="black"/>
<rect x="9" y="16" width="1" height="1" fill="black"/>
<rect x="21" y="19" width="2" height="1" fill="black"/>
<rect x="9" y="14" width="2" height="1" fill="black"/>
<rect x="13" y="2" width="2" height="1" fill="black"/>
<rect x="21" y="10" width="2" height="1" fill="black"/>
<rect width="2" height="1" transform="matrix(-1 0 0 1 5 2)" fill="black"/>
<rect width="2" height="1" transform="matrix(-1 0 0 1 13 9)" fill="black"/>
<rect width="1" height="1" transform="matrix(-1 0 0 1 4 12)" fill="black"/>
<rect x="19" y="17" width="1" height="1" fill="black"/>
<rect width="2" height="1" transform="matrix(-1 0 0 1 16 17)" fill="black"/>
<rect x="7" y="12" width="1" height="1" fill="black"/>
<rect x="17" y="5" width="1" height="1" fill="black"/>
<rect width="1" height="1" transform="matrix(-1 0 0 1 1 5)" fill="black"/>
<rect width="6" height="1" transform="matrix(-1 0 0 1 12 0)" fill="black"/>
<rect width="6" height="1" transform="matrix(-1 0 0 1 20 7)" fill="black"/>
<rect x="15" y="3" width="1" height="1" fill="black"/>
<rect x="23" y="11" width="1" height="1" fill="black"/>
<rect width="1" height="1" transform="matrix(-1 0 0 1 3 3)" fill="black"/>
<rect width="1" height="1" transform="matrix(-1 0 0 1 11 10)" fill="black"/>
<rect width="1" height="1" transform="matrix(-1 0 0 1 3 13)" fill="black"/>
<rect x="20" y="18" width="1" height="1" fill="black"/>
<rect x="8" y="13" width="1" height="1" fill="black"/>
<rect x="18" y="6" width="1" height="1" fill="black"/>
<rect x="12" y="1" width="1" height="1" fill="black"/>
<rect x="20" y="8" width="1" height="1" fill="black"/>
<rect width="1" height="1" transform="matrix(-1 0 0 1 6 1)" fill="black"/>
<rect width="1" height="1" transform="matrix(-1 0 0 1 14 8)" fill="black"/>
<rect x="16" y="4" width="1" height="1" fill="black"/>
<rect width="1" height="1" transform="matrix(-1 0 0 1 2 4)" fill="black"/>
<rect width="1" height="1" transform="matrix(-1 0 0 1 10 11)" fill="black"/>
<rect width="2" height="1" transform="matrix(-1 0 0 1 6 11)" fill="black"/>
<rect width="3" height="1" transform="matrix(-1 0 0 1 19 16)" fill="black"/>
<rect width="1" height="1" transform="matrix(-1 0 0 1 3 13)" fill="black"/>
<rect x="20" y="18" width="1" height="1" fill="black"/>
<rect x="8" y="13" width="1" height="1" fill="black"/>
<rect x="18" y="6" width="1" height="1" fill="black"/>
<rect x="12" y="1" width="1" height="1" fill="black"/>
<rect x="20" y="8" width="1" height="1" fill="black"/>
<rect width="1" height="1" transform="matrix(-1 0 0 1 6 1)" fill="black"/>
<rect width="1" height="1" transform="matrix(-1 0 0 1 14 8)" fill="black"/>
<rect x="16" y="4" width="1" height="1" fill="black"/>
<rect width="1" height="1" transform="matrix(-1 0 0 1 2 4)" fill="black"/>
<rect width="1" height="1" transform="matrix(-1 0 0 1 10 11)" fill="black"/>
</svg>
