<svg width="17" height="40" viewBox="0 0 17 40" fill="none" xmlns="http://www.w3.org/2000/svg">
<rect x="8" y="27" width="2" height="13" fill="black"/>
<rect x="8" y="2" width="1" height="16" fill="black"/>
<rect x="7" y="18" width="2" height="9" fill="black"/>
<rect x="8" width="1" height="2" fill="black"/>
<rect x="12" y="11" width="2" height="1" fill="black"/>
<rect x="10" y="6" width="1" height="1" fill="black"/>
<rect x="5" y="6" width="2" height="1" fill="black"/>
<rect width="2" height="1" transform="matrix(-1 0 0 1 14 19)" fill="black"/>
<rect x="10" y="9" width="2" height="1" fill="black"/>
<rect x="4" y="9" width="2" height="1" fill="black"/>
<rect width="2" height="1" transform="matrix(-1 0 0 1 15 22)" fill="black"/>
<rect width="2" height="1" transform="matrix(-1 0 0 1 12 20)" fill="black"/>
<rect x="3" y="12" width="2" height="1" fill="black"/>
<rect width="2" height="1" transform="matrix(-1 0 0 1 16 25)" fill="black"/>
<rect x="2" y="26" width="2" height="1" fill="black"/>
<rect x="7" y="5" width="1" height="1" fill="black"/>
<rect x="7" y="3" width="1" height="1" fill="black"/>
<rect x="9" y="5" width="1" height="1" fill="black"/>
<rect x="7" y="19" width="1" height="1" fill="black"/>
<rect x="6" y="18" width="1" height="1" fill="black"/>
<rect x="11" y="31" width="2" height="2" fill="black"/>
<rect x="13" y="33" width="2" height="1" fill="black"/>
<rect x="5" y="32" width="2" height="1" fill="black"/>
<rect x="6" y="8" width="1" height="1" fill="black"/>
<rect width="1" height="1" transform="matrix(-1 0 0 1 13 21)" fill="black"/>
<rect width="1" height="1" transform="matrix(-1 0 0 1 10 19)" fill="black"/>
<rect x="13" y="17" width="1" height="1" fill="black"/>
<rect width="1" height="1" transform="matrix(-1 0 0 1 1 25)" fill="black"/>
<rect x="12" y="13" width="1" height="1" fill="black"/>
<rect width="1" height="1" transform="matrix(-1 0 0 1 2 21)" fill="black"/>
<rect x="13" y="14" width="1" height="1" fill="black"/>
<rect width="1" height="1" transform="matrix(-1 0 0 1 1 22)" fill="black"/>
<rect x="10" y="8" width="1" height="1" fill="black"/>
<rect x="5" y="13" width="1" height="1" fill="black"/>
<rect width="1" height="1" transform="matrix(-1 0 0 1 14 26)" fill="black"/>
<rect x="4" y="27" width="1" height="1" fill="black"/>
<rect x="2" y="15" width="1" height="1" fill="black"/>
<rect width="1" height="1" transform="matrix(-1 0 0 1 17 28)" fill="black"/>
<rect x="1" y="29" width="1" height="1" fill="black"/>
<rect x="3" y="17" width="1" height="1" fill="black"/>
<rect x="2" y="31" width="1" height="1" fill="black"/>
<rect x="10" y="39" width="1" height="1" fill="black"/>
<rect x="7" y="37" width="1" height="1" fill="black"/>
<rect x="5" y="30" width="1" height="1" fill="black"/>
<rect x="3" y="11" width="1" height="1" fill="black"/>
<rect width="1" height="1" transform="matrix(-1 0 0 1 16 24)" fill="black"/>
<rect x="5" y="11" width="1" height="1" fill="black"/>
<rect width="1" height="1" transform="matrix(-1 0 0 1 14 24)" fill="black"/>
<rect x="10" y="10" width="1" height="1" fill="black"/>
<rect x="11" y="14" width="1" height="1" fill="black"/>
<rect width="1" height="1" transform="matrix(-1 0 0 1 3 22)" fill="black"/>
<rect x="9" y="7" width="1" height="1" fill="black"/>
<rect x="8" y="10" width="1" height="1" fill="black"/>
<rect x="3" y="14" width="2" height="2" fill="black"/>
<rect width="2" height="2" transform="matrix(-1 0 0 1 16 27)" fill="black"/>
<rect x="2" y="28" width="2" height="2" fill="black"/>
<rect x="8" y="14" width="2" height="2" fill="black"/>
<rect width="2" height="2" transform="matrix(-1 0 0 1 6 22)" fill="black"/>
<rect x="10" y="12" width="2" height="2" fill="black"/>
<rect width="2" height="2" transform="matrix(-1 0 0 1 4 20)" fill="black"/>
<rect x="6" y="13" width="2" height="2" fill="black"/>
<rect width="2" height="2" transform="matrix(-1 0 0 1 13 26)" fill="black"/>
<rect x="5" y="27" width="2" height="2" fill="black"/>
<rect x="6" y="25" width="2" height="2" fill="black"/>
<rect x="9" y="21" width="2" height="2" fill="black"/>
<rect x="6" y="21" width="2" height="1" fill="black"/>
<rect x="8" y="11" width="2" height="2" fill="black"/>
<rect width="2" height="2" transform="matrix(-1 0 0 1 6 19)" fill="black"/>
<rect x="6" y="10" width="2" height="2" fill="black"/>
<rect width="2" height="2" transform="matrix(-1 0 0 1 13 23)" fill="black"/>
<rect x="4" y="16" width="9" height="1" fill="black"/>
<rect width="9" height="1" transform="matrix(-1 0 0 1 15 29)" fill="black"/>
<rect width="9" height="1" transform="matrix(-1 0 0 1 10 24)" fill="black"/>
</svg>
