<svg width="16" height="20" viewBox="0 0 16 20" fill="none" xmlns="http://www.w3.org/2000/svg">
<rect x="7" y="15" width="2" height="5" fill="black"/>
<rect x="8" width="1" height="2" fill="black"/>
<rect y="4" width="1" height="2" fill="black"/>
<rect x="9" y="7" width="1" height="4" fill="black"/>
<rect x="10" y="10" width="1" height="3" fill="black"/>
<rect x="7" y="8" width="1" height="3" fill="black"/>
<rect x="6" y="5" width="1" height="3" fill="black"/>
<rect x="11" y="4" width="1" height="3" fill="black"/>
<rect x="11" y="7" width="1" height="3" fill="black"/>
<rect x="4" y="4" width="1" height="1" fill="black"/>
<rect x="3" width="1" height="1" fill="black"/>
<rect x="15" y="4" width="1" height="1" fill="black"/>
<rect x="12" y="2" width="1" height="1" fill="black"/>
<rect x="1" y="3" width="3" height="1" fill="black"/>
<rect x="4" y="8" width="2" height="1" fill="black"/>
<rect x="4" y="1" width="2" height="1" fill="black"/>
<rect x="14" y="3" width="2" height="1" transform="rotate(-90 14 3)" fill="black"/>
<rect x="13" y="5" width="2" height="1" transform="rotate(-90 13 5)" fill="black"/>
<rect x="6" y="4" width="2" height="1" transform="rotate(-90 6 4)" fill="black"/>
<rect x="8" y="6" width="2" height="1" transform="rotate(-90 8 6)" fill="black"/>
<rect x="10" y="4" width="2" height="1" transform="rotate(-90 10 4)" fill="black"/>
<rect x="12" y="8" width="2" height="1" transform="rotate(-90 12 8)" fill="black"/>
<rect x="8" y="15" width="4" height="2" transform="rotate(-90 8 15)" fill="black"/>
<rect x="9" y="19" width="1" height="1" fill="black"/>
</svg>
