<svg width="20" height="20" viewBox="0 0 20 20" fill="none" xmlns="http://www.w3.org/2000/svg">
<path d="M19 0H18V2H19V5H18V6H16V7H18V6H19V5H20V2H19V0Z" fill="black"/>
<path d="M17 3V2L15 2V3L14 3V5H15V3L17 3Z" fill="black"/>
<path d="M17 3H18V4H17V3Z" fill="black"/>
<path d="M2 9H3L3 6H4L4 3H9V4H10V8L9 8V9H5V10H2V9Z" fill="black"/>
<path d="M11 4H10V1L11 1V4Z" fill="black"/>
<path d="M11 1V0H12V1H11Z" fill="black"/>
<path d="M2 18L2 19H6V18H5V16H4L4 15H2V16H1L1 14H0V16H1L1 18H2Z" fill="black"/>
<path d="M17.8184 11.2V10.1H14.5456V9L20.0001 9V10.1H18.9093V11.2H17.8184Z" fill="black"/>
<path d="M17.818 14.5001H16.7271V16.7001H12.3639V17.8003H11.2729V11.2004H12.3634V10.1002L17.8184 10.1L17.818 14.5001Z" fill="black"/>
<path d="M8 18.8998V19.9998H10.1818V18.8998H8Z" fill="black"/>
<path d="M10.1818 18.8998L10.1816 17.7996L11.2729 17.8003L11.2725 18.8996L10.1818 18.8998Z" fill="black"/>
<path d="M10.1816 12.3006V15.6005H11.2725V12.3006H10.1816Z" fill="black"/>
</svg>
