<svg width="17" height="13" viewBox="0 0 17 13" fill="none" xmlns="http://www.w3.org/2000/svg">
<rect x="1" y="9" width="1" height="1" transform="rotate(90 1 9)" fill="black"/>
<rect x="15" y="11" width="1" height="1" transform="rotate(90 15 11)" fill="black"/>
<rect x="9" y="4" width="1" height="1" transform="rotate(90 9 4)" fill="black"/>
<rect x="13" y="3" width="1" height="1" transform="rotate(90 13 3)" fill="black"/>
<rect x="9" y="10" width="3" height="1" transform="rotate(90 9 10)" fill="black"/>
<rect x="8" y="7" width="3" height="1" transform="rotate(90 8 7)" fill="black"/>
<rect x="6" y="10" width="3" height="1" transform="rotate(90 6 10)" fill="black"/>
<rect x="5" y="7" width="3" height="1" transform="rotate(90 5 7)" fill="black"/>
<rect x="3" y="3" width="3" height="1" transform="rotate(90 3 3)" fill="black"/>
<rect x="7" y="4" width="3" height="1" transform="rotate(90 7 4)" fill="black"/>
<rect x="9" width="3" height="1" transform="rotate(90 9 0)" fill="black"/>
<rect x="11" y="8" width="3" height="1" transform="rotate(90 11 8)" fill="black"/>
<rect x="2" y="1" width="2" height="1" transform="rotate(90 2 1)" fill="black"/>
<rect x="4" y="6" width="2" height="1" transform="rotate(90 4 6)" fill="black"/>
<rect x="6" y="2" width="2" height="1" transform="rotate(90 6 2)" fill="black"/>
<rect x="10" y="5" width="2" height="1" transform="rotate(90 10 5)" fill="black"/>
<rect x="11" y="2" width="2" height="1" transform="rotate(90 11 2)" fill="black"/>
<rect x="12" y="5" width="3" height="1" transform="rotate(90 12 5)" fill="black"/>
<rect x="13" y="9" width="3" height="1" transform="rotate(90 13 9)" fill="black"/>
<rect x="14" y="6" width="3" height="1" transform="rotate(90 14 6)" fill="black"/>
<rect width="1" height="2" transform="matrix(4.85682e-08 -1 -1 -3.93403e-08 3 11)" fill="black"/>
<rect width="1" height="2" transform="matrix(4.85682e-08 -1 -1 -3.93403e-08 17 11)" fill="black"/>
</svg>
