<svg width="48" height="40" viewBox="0 0 48 40" fill="none" xmlns="http://www.w3.org/2000/svg">
<rect x="8" y="34" width="25" height="1" fill="black"/>
<rect x="8" y="35" width="29" height="1" fill="black"/>
<rect x="38" y="38" width="5" height="1" fill="black"/>
<rect x="11" y="38" width="5" height="1" fill="black"/>
<rect x="6" y="35" width="2" height="1" fill="black"/>
<rect x="12" y="32" width="4" height="2" fill="black"/>
<rect x="13" y="31" width="2" height="1" fill="black"/>
<rect x="20" y="32" width="4" height="2" fill="black"/>
<rect x="26" y="32" width="2" height="2" fill="black"/>
<rect x="20" y="28" width="8" height="2" fill="black"/>
<rect x="20" y="24" width="8" height="2" fill="black"/>
<rect x="20" y="20" width="8" height="2" fill="black"/>
<rect x="20" y="16" width="8" height="2" fill="black"/>
<rect x="20" y="12" width="8" height="2" fill="black"/>
<rect x="19" y="6" width="1" height="28" fill="black"/>
<rect x="28" y="6" width="1" height="28" fill="black"/>
<rect x="21" y="7" width="1" height="4" fill="black"/>
<rect x="26" y="7" width="1" height="4" fill="black"/>
<rect x="26" y="6" width="1" height="4" transform="rotate(90 26 6)" fill="black"/>
<rect x="26" y="11" width="1" height="4" transform="rotate(90 26 11)" fill="black"/>
<rect width="1" height="2" transform="matrix(1.19249e-08 -1 -1 -1.19249e-08 19 9)" fill="black"/>
<rect x="29" y="9" width="1" height="2" transform="rotate(-90 29 9)" fill="black"/>
<rect width="4" height="1" transform="matrix(-1 0 0 1 11 11)" fill="black"/>
<rect x="37" y="11" width="4" height="1" fill="black"/>
<rect width="3" height="1" transform="matrix(-1 0 0 1 14 10)" fill="black"/>
<rect x="34" y="10" width="3" height="1" fill="black"/>
<rect width="3" height="1" transform="matrix(-1 0 0 1 17 9)" fill="black"/>
<rect x="31" y="9" width="3" height="1" fill="black"/>
<rect width="3" height="1" transform="matrix(-1 0 0 1 17 7)" fill="black"/>
<rect x="31" y="7" width="3" height="1" fill="black"/>
<rect width="3" height="1" transform="matrix(-1 0 0 1 14 6)" fill="black"/>
<rect x="34" y="6" width="3" height="1" fill="black"/>
<rect width="4" height="1" transform="matrix(-1 0 0 1 11 5)" fill="black"/>
<rect x="37" y="5" width="4" height="1" fill="black"/>
<rect x="41" y="4" width="5" height="1" fill="black"/>
<rect width="5" height="1" transform="matrix(-1 0 0 1 7 4)" fill="black"/>
<rect x="46" y="3" width="2" height="1" fill="black"/>
<rect width="2" height="1" transform="matrix(-1 0 0 1 2 3)" fill="black"/>
<rect x="41" y="12" width="5" height="1" fill="black"/>
<rect width="5" height="1" transform="matrix(-1 0 0 1 7 12)" fill="black"/>
<rect x="46" y="13" width="2" height="1" fill="black"/>
<rect width="2" height="1" transform="matrix(-1 0 0 1 2 13)" fill="black"/>
<rect x="21" y="2" width="6" height="1" fill="black"/>
<rect x="20" y="3" width="8" height="1" fill="black"/>
<rect x="19" y="4" width="10" height="2" fill="black"/>
<rect x="23" width="2" height="2" fill="black"/>
<rect x="4" y="36" width="40" height="2" fill="black"/>
<rect x="16" y="38" width="22" height="2" fill="black"/>
</svg>
