<svg width="60" height="40" viewBox="0 0 60 40" fill="none" xmlns="http://www.w3.org/2000/svg">
<rect width="2" height="1" transform="matrix(1.19249e-08 -1 -1 -1.19249e-08 36 5)" fill="black"/>
<rect width="2" height="1" transform="matrix(1.19249e-08 -1 -1 -1.19249e-08 38 5)" fill="black"/>
<rect width="2" height="2" transform="matrix(1.19249e-08 -1 -1 -1.19249e-08 12 19)" fill="black"/>
<rect width="2" height="2" transform="matrix(1.19249e-08 -1 -1 -1.19249e-08 15 28)" fill="black"/>
<rect width="2" height="2" transform="matrix(1.19249e-08 -1 -1 -1.19249e-08 20 20)" fill="black"/>
<rect width="2" height="1" transform="matrix(1.19249e-08 -1 -1 -1.19249e-08 11 17)" fill="black"/>
<rect width="2" height="1" transform="matrix(1.19249e-08 -1 -1 -1.19249e-08 54 8)" fill="black"/>
<rect x="8" y="13" width="2" height="1" transform="rotate(-90 8 13)" fill="black"/>
<rect width="6" height="1" transform="matrix(1.19249e-08 -1 -1 -1.19249e-08 56 18)" fill="black"/>
<rect x="21" y="18" width="6" height="1" transform="rotate(-90 21 18)" fill="black"/>
<rect x="29" y="13" width="6" height="1" transform="rotate(-90 29 13)" fill="black"/>
<rect x="6" y="20" width="3" height="1" transform="rotate(-90 6 20)" fill="black"/>
<rect x="3" y="27" width="3" height="1" transform="rotate(-90 3 27)" fill="black"/>
<rect x="50" y="9" width="2" height="1" transform="rotate(-90 50 9)" fill="black"/>
<rect width="2" height="1" transform="matrix(1.19249e-08 -1 -1 -1.19249e-08 12 14)" fill="black"/>
<rect width="2" height="1" transform="matrix(-1 3.17865e-08 3.17865e-08 1 19 17)" fill="black"/>
<rect width="2" height="1" transform="matrix(1.19249e-08 -1 -1 -1.19249e-08 42 14)" fill="black"/>
<rect width="2" height="1" transform="matrix(1.19249e-08 -1 -1 -1.19249e-08 57 20)" fill="black"/>
<rect width="2" height="1" transform="matrix(1.19249e-08 -1 -1 -1.19249e-08 54 36)" fill="black"/>
<rect width="2" height="1" transform="matrix(1.19249e-08 -1 -1 -1.19249e-08 58 29)" fill="black"/>
<rect width="4" height="2" transform="matrix(1.19249e-08 -1 -1 -1.19249e-08 54 12)" fill="black"/>
<rect width="3" height="2" transform="matrix(1.19249e-08 -1 -1 -1.19249e-08 60 24)" fill="black"/>
<rect width="4" height="2" transform="matrix(1.19249e-08 -1 -1 -1.19249e-08 44 34)" fill="black"/>
<rect width="4" height="1" transform="matrix(1.19249e-08 -1 -1 -1.19249e-08 47 15)" fill="black"/>
<rect width="4" height="1" transform="matrix(1.19249e-08 -1 -1 -1.19249e-08 41 29)" fill="black"/>
<rect x="20" y="20" width="2" height="1" transform="rotate(-90 20 20)" fill="black"/>
<rect x="28" y="15" width="2" height="1" transform="rotate(-90 28 15)" fill="black"/>
<rect x="29" y="6" width="2" height="1" transform="rotate(-90 29 6)" fill="black"/>
<rect x="5" y="23" width="2" height="1" transform="rotate(-90 5 23)" fill="black"/>
<rect x="49" y="13" width="2" height="1" transform="rotate(-90 49 13)" fill="black"/>
<rect width="2" height="1" transform="matrix(1.19249e-08 -1 -1 -1.19249e-08 13 18)" fill="black"/>
<rect width="2" height="1" transform="matrix(1.19249e-08 -1 -1 -1.19249e-08 39 9)" fill="black"/>
<rect width="2" height="1" transform="matrix(1.19249e-08 -1 -1 -1.19249e-08 55 12)" fill="black"/>
<rect x="7" y="17" width="2" height="1" transform="rotate(-90 7 17)" fill="black"/>
<rect x="32" y="9" width="2" height="1" transform="rotate(-90 32 9)" fill="black"/>
<rect width="2" height="1" transform="matrix(-1 3.17865e-08 3.17865e-08 1 17 18)" fill="black"/>
<rect width="1" height="1" transform="matrix(1.19249e-08 -1 -1 -1.19249e-08 41 12)" fill="black"/>
<rect x="50" y="11" width="1" height="1" transform="rotate(-90 50 11)" fill="black"/>
<rect width="1" height="1" transform="matrix(1.19249e-08 -1 -1 -1.19249e-08 12 16)" fill="black"/>
<rect width="1" height="1" transform="matrix(-1 3.17865e-08 3.17865e-08 1 20 16)" fill="black"/>
<rect width="1" height="1" transform="matrix(1.19249e-08 -1 -1 -1.19249e-08 43 15)" fill="black"/>
<rect width="1" height="1" transform="matrix(1.19249e-08 -1 -1 -1.19249e-08 58 21)" fill="black"/>
<rect width="1" height="1" transform="matrix(1.19249e-08 -1 -1 -1.19249e-08 48 16)" fill="black"/>
<rect width="1" height="1" transform="matrix(1.19249e-08 -1 -1 -1.19249e-08 42 30)" fill="black"/>
<rect x="19" y="21" width="1" height="1" transform="rotate(-90 19 21)" fill="black"/>
<rect x="27" y="16" width="1" height="1" transform="rotate(-90 27 16)" fill="black"/>
<rect x="30" y="7" width="1" height="1" transform="rotate(-90 30 7)" fill="black"/>
<rect x="4" y="24" width="1" height="1" transform="rotate(-90 4 24)" fill="black"/>
<rect x="48" y="14" width="1" height="1" transform="rotate(-90 48 14)" fill="black"/>
<rect width="1" height="1" transform="matrix(1.19249e-08 -1 -1 -1.19249e-08 14 19)" fill="black"/>
<rect x="32" y="2" width="3" height="1" fill="black"/>
<rect width="1" height="1" transform="matrix(-1 0 0 1 53 7)" fill="black"/>
<rect x="9" y="12" width="1" height="1" fill="black"/>
<rect x="30" y="1" width="2" height="1" fill="black"/>
<rect x="34" width="2" height="1" fill="black"/>
<rect x="22" y="10" width="2" height="1" fill="black"/>
<rect x="16" y="25" width="2" height="1" fill="black"/>
<rect width="2" height="2" transform="matrix(4.37114e-08 -1 -1 -4.37114e-08 28 21)" fill="black"/>
<rect width="4" height="2" transform="matrix(4.37114e-08 -1 -1 -4.37114e-08 40 13)" fill="black"/>
<rect width="2" height="2" transform="matrix(4.37114e-08 -1 -1 -4.37114e-08 47 17)" fill="black"/>
<rect x="47" y="20" width="2" height="1" transform="rotate(-90 47 20)" fill="black"/>
<rect x="6" y="36" width="2" height="1" transform="rotate(90 6 36)" fill="black"/>
<rect width="2" height="1" transform="matrix(4.37114e-08 1 1 -4.37114e-08 37 20)" fill="black"/>
<rect width="6" height="1" transform="matrix(1.19249e-08 -1 -1 -1.19249e-08 60 40)" fill="black"/>
<rect width="6" height="1" transform="matrix(1.19249e-08 -1 -1 -1.19249e-08 41 36)" fill="black"/>
<rect width="9" height="3" transform="matrix(1.19249e-08 -1 -1 -1.19249e-08 38 14)" fill="black"/>
<rect width="8" height="2" transform="matrix(1.19249e-08 -1 -1 -1.19249e-08 55 19)" fill="black"/>
<rect width="7" height="3" transform="matrix(1.19249e-08 -1 -1 -1.19249e-08 28 19)" fill="black"/>
<rect width="7" height="3" transform="matrix(1.19249e-08 -1 -1 -1.19249e-08 14 26)" fill="black"/>
<rect width="7" height="1" transform="matrix(1 0 0 -1 22 40)" fill="black"/>
<rect width="6" height="1" transform="matrix(1.19249e-08 -1 -1 -1.19249e-08 1 34)" fill="black"/>
<rect width="1" height="1" transform="matrix(4.37114e-08 -1 -1 -4.37114e-08 26 23)" fill="black"/>
<rect x="49" y="22" width="1" height="1" transform="rotate(-90 49 22)" fill="black"/>
<rect width="1" height="1" transform="matrix(-1 0 0 1 46 23)" fill="black"/>
<rect x="8" y="34" width="1" height="1" transform="rotate(90 8 34)" fill="black"/>
<rect width="1" height="1" transform="matrix(4.37114e-08 1 1 -4.37114e-08 35 18)" fill="black"/>
<rect width="1" height="1" transform="matrix(4.37114e-08 1 1 -4.37114e-08 15 34)" fill="black"/>
<rect width="1" height="1" transform="matrix(4.37114e-08 1 1 -4.37114e-08 41 34)" fill="black"/>
<rect width="1" height="1" transform="matrix(4.37114e-08 1 1 -4.37114e-08 32 29)" fill="black"/>
<rect width="1" height="1" transform="matrix(4.37114e-08 1 1 -4.37114e-08 18 36)" fill="black"/>
<rect width="1" height="1" transform="matrix(4.37114e-08 1 1 -4.37114e-08 34 38)" fill="black"/>
<rect width="1" height="1" transform="matrix(4.37114e-08 1 1 -4.37114e-08 47 38)" fill="black"/>
<rect width="1" height="1" transform="matrix(4.37114e-08 1 1 -4.37114e-08 54 33)" fill="black"/>
<rect width="1" height="1" transform="matrix(4.37114e-08 1 1 -4.37114e-08 56 28)" fill="black"/>
<rect width="3" height="1" transform="matrix(4.37114e-08 1 1 -4.37114e-08 58 24)" fill="black"/>
<rect width="2" height="1" transform="matrix(4.37114e-08 -1 -1 -4.37114e-08 8 31)" fill="black"/>
<rect x="35" y="15" width="2" height="1" transform="rotate(-90 35 15)" fill="black"/>
<rect x="27" y="11" width="1" height="1" fill="black"/>
<rect x="26" y="26" width="1" height="1" transform="rotate(90 26 26)" fill="black"/>
<rect width="1" height="1" transform="matrix(4.37114e-08 1 1 -4.37114e-08 49 25)" fill="black"/>
<rect x="45" y="10" width="1" height="1" fill="black"/>
<rect x="39" y="24" width="1" height="1" fill="black"/>
<rect width="1" height="1" transform="matrix(4.37114e-08 -1 -1 -4.37114e-08 29 22)" fill="black"/>
<rect x="46" y="21" width="1" height="1" transform="rotate(-90 46 21)" fill="black"/>
<rect width="1" height="1" transform="matrix(-1 0 0 1 45 24)" fill="black"/>
<rect x="7" y="35" width="1" height="1" transform="rotate(90 7 35)" fill="black"/>
<rect width="1" height="1" transform="matrix(4.37114e-08 1 1 -4.37114e-08 36 19)" fill="black"/>
<rect x="28" y="12" width="1" height="1" fill="black"/>
<rect width="2" height="1" transform="matrix(4.37114e-08 -1 -1 -4.37114e-08 27 25)" fill="black"/>
<rect width="2" height="1" transform="matrix(4.37114e-08 -1 -1 -4.37114e-08 18 36)" fill="black"/>
<rect width="2" height="1" transform="matrix(4.37114e-08 -1 -1 -4.37114e-08 31 35)" fill="black"/>
<rect x="48" y="24" width="2" height="1" transform="rotate(-90 48 24)" fill="black"/>
<rect width="2" height="1" transform="matrix(-1 0 0 1 45 11)" fill="black"/>
<rect width="2" height="1" transform="matrix(-1 0 0 1 39 25)" fill="black"/>
<rect width="3" height="1" transform="matrix(4.37114e-08 -1 -1 -4.37114e-08 9 34)" fill="black"/>
<rect x="34" y="18" width="3" height="1" transform="rotate(-90 34 18)" fill="black"/>
<rect x="14" y="34" width="3" height="1" transform="rotate(-90 14 34)" fill="black"/>
<rect x="24" y="12" width="2" height="1" fill="black"/>
<rect width="1" height="1" transform="matrix(4.37114e-08 -1 -1 -4.37114e-08 29 22)" fill="black"/>
<rect x="46" y="21" width="1" height="1" transform="rotate(-90 46 21)" fill="black"/>
<rect width="1" height="1" transform="matrix(-1 0 0 1 45 24)" fill="black"/>
<rect x="7" y="35" width="1" height="1" transform="rotate(90 7 35)" fill="black"/>
<rect width="1" height="1" transform="matrix(4.37114e-08 1 1 -4.37114e-08 36 19)" fill="black"/>
<rect x="28" y="12" width="1" height="1" fill="black"/>
</svg>
