<svg width="60" height="40" viewBox="0 0 60 40" fill="none" xmlns="http://www.w3.org/2000/svg">
<rect width="2" height="1" transform="matrix(-1 0 0 1 51 9)" fill="black"/>
<rect width="2" height="1" transform="matrix(1.19249e-08 -1 -1 -1.19249e-08 36 5)" fill="black"/>
<rect width="2" height="1" transform="matrix(1.19249e-08 -1 -1 -1.19249e-08 38 5)" fill="black"/>
<rect width="2" height="1" transform="matrix(1.19249e-08 -1 -1 -1.19249e-08 40 11)" fill="black"/>
<rect x="31" y="11" width="2" height="1" transform="rotate(-90 31 11)" fill="black"/>
<rect width="2" height="1" transform="matrix(-1 3.17865e-08 3.17865e-08 1 25 17.5)" fill="black"/>
<rect width="2" height="1" transform="matrix(-1 3.17865e-08 3.17865e-08 1 7 16.5)" fill="black"/>
<rect width="2" height="1" transform="matrix(1.19249e-08 -1 -1 -1.19249e-08 42 14)" fill="black"/>
<rect width="2" height="1" transform="matrix(-1 3.17865e-08 3.17865e-08 1 28 15.5)" fill="black"/>
<rect width="2" height="1" transform="matrix(-1 3.17865e-08 3.17865e-08 1 10 14.5)" fill="black"/>
<rect width="2" height="1" transform="matrix(-1 3.17865e-08 3.17865e-08 1 12 15)" fill="black"/>
<rect width="2" height="1" transform="matrix(-1 8.74228e-08 8.74228e-08 1 44 16)" fill="black"/>
<rect width="2" height="1" transform="matrix(-1 8.74228e-08 8.74228e-08 1 38 20)" fill="black"/>
<rect width="4" height="1" transform="matrix(-1 8.74228e-08 8.74228e-08 1 48 15)" fill="black"/>
<rect width="4" height="1" transform="matrix(-1 8.74228e-08 8.74228e-08 1 45 19)" fill="black"/>
<rect width="2" height="1" transform="matrix(1.19249e-08 -1 -1 -1.19249e-08 39 9)" fill="black"/>
<rect width="2" height="1" transform="matrix(1.19249e-08 -1 -1 -1.19249e-08 26 10)" fill="black"/>
<rect width="2" height="1" transform="matrix(1.19249e-08 -1 -1 -1.19249e-08 16 13)" fill="black"/>
<rect x="32" y="9" width="2" height="1" transform="rotate(-90 32 9)" fill="black"/>
<rect x="31" y="5" width="2" height="1" transform="rotate(-90 31 5)" fill="black"/>
<rect width="2" height="1" transform="matrix(-1 3.17865e-08 3.17865e-08 1 23 18.5)" fill="black"/>
<rect width="2" height="1" transform="matrix(-1 3.17865e-08 3.17865e-08 1 5 17.5)" fill="black"/>
<rect width="1" height="1" transform="matrix(1.19249e-08 -1 -1 -1.19249e-08 41 12)" fill="black"/>
<rect width="1" height="1" transform="matrix(-1 3.17865e-08 3.17865e-08 1 26 16.5)" fill="black"/>
<rect width="1" height="1" transform="matrix(-1 3.17865e-08 3.17865e-08 1 8 15.5)" fill="black"/>
<rect width="1" height="1" transform="matrix(1.19249e-08 -1 -1 -1.19249e-08 43 15)" fill="black"/>
<rect width="1" height="1" transform="matrix(-1 3.17865e-08 3.17865e-08 1 29 14.5)" fill="black"/>
<rect width="1" height="1" transform="matrix(-1 3.17865e-08 3.17865e-08 1 30 13)" fill="black"/>
<rect width="1" height="1" transform="matrix(-1 3.17865e-08 3.17865e-08 1 31 11)" fill="black"/>
<rect width="2" height="1" transform="matrix(-1 0 0 1 29 3)" fill="black"/>
<rect x="21" y="15" width="2" height="1" fill="black"/>
<rect width="2" height="1" transform="matrix(-1 0 0 1 6 14)" fill="black"/>
<rect x="40" y="4" width="3" height="2" fill="black"/>
<rect x="32" y="2" width="3" height="1" fill="black"/>
<rect width="2" height="1" transform="matrix(-1 0 0 1 22 8)" fill="black"/>
<rect width="1" height="1" transform="matrix(-1 0 0 1 49 8)" fill="black"/>
<rect width="1" height="1" transform="matrix(-1 0 0 1 18 9)" fill="black"/>
<rect width="1" height="1" transform="matrix(-1 0 0 1 15 13)" fill="black"/>
<rect width="1" height="1" transform="matrix(-1 0 0 1 13 15)" fill="black"/>
<rect width="1" height="1" transform="matrix(-1 0 0 1 19 7)" fill="black"/>
<rect width="1" height="1" transform="matrix(-1 0 0 1 17 10)" fill="black"/>
<rect width="1" height="1" transform="matrix(-1 0 0 1 14 14)" fill="black"/>
<rect width="1" height="1" transform="matrix(-1 0 0 1 12 16)" fill="black"/>
<rect width="1" height="1" transform="matrix(-1 0 0 1 27 4)" fill="black"/>
<rect x="43" y="6" width="1" height="1" fill="black"/>
<rect width="1" height="1" transform="matrix(-1 0 0 1 30 6)" fill="black"/>
<rect x="44" y="9" width="1" height="1" fill="black"/>
<rect width="1" height="1" transform="matrix(-1 0 0 1 29 2)" fill="black"/>
<rect x="21" y="14" width="1" height="1" fill="black"/>
<rect width="1" height="1" transform="matrix(-1 0 0 1 6 13)" fill="black"/>
<rect width="1" height="1" transform="matrix(-1 0 0 1 27 2)" fill="black"/>
<rect x="23" y="14" width="1" height="1" fill="black"/>
<rect width="1" height="1" transform="matrix(-1 0 0 1 4 13)" fill="black"/>
<rect width="1" height="1" transform="matrix(-1 0 0 1 19 10)" fill="black"/>
<rect width="1" height="1" transform="matrix(-1 0 0 1 42 1)" fill="black"/>
<rect width="1" height="1" transform="matrix(-1 0 0 1 37 2)" fill="black"/>
<rect width="1" height="1" transform="matrix(-1 0 0 1 31 5)" fill="black"/>
<rect width="1" height="1" transform="matrix(-1 0 0 1 30 7)" fill="black"/>
<rect width="2" height="1" transform="matrix(-1 0 0 1 29 6)" fill="black"/>
<rect width="2" height="2" transform="matrix(-1 0 0 1 40 1)" fill="black"/>
<rect width="2" height="1" transform="matrix(-1 0 0 1 28 7)" fill="black"/>
<rect x="44" y="6" width="2" height="2" fill="black"/>
<rect x="45" y="8" width="2" height="2" fill="black"/>
<rect x="22" y="9" width="2" height="1" fill="black"/>
<rect x="36" width="2" height="1" fill="black"/>
<rect width="2" height="2" transform="matrix(-1 0 0 1 51 6)" fill="black"/>
<rect x="13" y="19" width="2" height="1" fill="black"/>
<rect x="16" y="25" width="2" height="1" fill="black"/>
<rect x="46" y="36" width="2" height="1" fill="black"/>
<rect width="2" height="1" transform="matrix(-1 0 0 1 52 30)" fill="black"/>
<rect width="1" height="1" transform="matrix(-1 0 0 1 12 18)" fill="black"/>
<rect x="15" y="20" width="1" height="1" fill="black"/>
<rect width="1" height="1" transform="matrix(-1 0 0 1 53 25)" fill="black"/>
<rect x="8" y="28" width="1" height="1" fill="black"/>
<rect x="7" y="29" width="1" height="5" fill="black"/>
<rect width="1" height="1" transform="matrix(-1 0 0 1 55 29)" fill="black"/>
<rect x="16" y="23" width="1" height="1" fill="black"/>
<rect x="45" y="35" width="1" height="1" fill="black"/>
<rect width="1" height="1" transform="matrix(-1 0 0 1 52 28)" fill="black"/>
<rect width="1" height="1" transform="matrix(-1 0 0 1 50 27)" fill="black"/>
<rect width="2" height="1" transform="matrix(-1 0 0 1 30 30)" fill="black"/>
<rect x="14" y="39" width="2" height="1" fill="black"/>
<rect width="6" height="1" transform="matrix(-1 0 0 1 6 39)" fill="black"/>
<rect width="5" height="1" transform="matrix(-1 0 0 1 28 23)" fill="black"/>
<rect x="37" y="30" width="2" height="1" fill="black"/>
<rect x="13" y="30" width="2" height="1" fill="black"/>
<rect x="53" y="14" width="2" height="1" fill="black"/>
<rect x="57" y="17" width="3" height="1" fill="black"/>
<rect x="53" y="20" width="2" height="1" fill="black"/>
<rect width="1" height="1" transform="matrix(-1 0 0 1 32 28)" fill="black"/>
<rect width="1" height="1" transform="matrix(-1 0 0 1 5 32)" fill="black"/>
<rect x="12" y="37" width="1" height="1" fill="black"/>
<rect width="2" height="1" transform="matrix(-1 0 0 1 9 37)" fill="black"/>
<rect width="1" height="1" transform="matrix(-1 0 0 1 30 21)" fill="black"/>
<rect x="35" y="28" width="1" height="1" fill="black"/>
<rect x="11" y="28" width="1" height="1" fill="black"/>
<rect x="51" y="12" width="1" height="1" fill="black"/>
<rect x="55" y="15" width="1" height="1" fill="black"/>
<rect x="51" y="18" width="1" height="1" fill="black"/>
<rect width="1" height="1" transform="matrix(-1 0 0 1 31 29)" fill="black"/>
<rect x="13" y="38" width="1" height="1" fill="black"/>
<rect width="1" height="1" transform="matrix(-1 0 0 1 29 22)" fill="black"/>
<rect x="36" y="29" width="1" height="1" fill="black"/>
<rect x="12" y="29" width="1" height="1" fill="black"/>
<rect x="52" y="13" width="1" height="1" fill="black"/>
<rect x="56" y="16" width="1" height="1" fill="black"/>
<rect x="52" y="19" width="1" height="1" fill="black"/>
<rect width="2" height="1" transform="matrix(-1 0 0 1 34 27)" fill="black"/>
<rect width="1" height="1" transform="matrix(-1 0 0 1 6 31)" fill="black"/>
<rect width="3" height="1" transform="matrix(-1 0 0 1 12 36)" fill="black"/>
<rect width="1" height="1" transform="matrix(-1 0 0 1 31 20)" fill="black"/>
<rect width="1" height="1" transform="matrix(-1 0 0 1 31 29)" fill="black"/>
<rect x="13" y="38" width="1" height="1" fill="black"/>
<rect width="1" height="1" transform="matrix(-1 0 0 1 29 22)" fill="black"/>
<rect x="36" y="29" width="1" height="1" fill="black"/>
<rect x="12" y="29" width="1" height="1" fill="black"/>
<rect x="52" y="13" width="1" height="1" fill="black"/>
<rect x="56" y="16" width="1" height="1" fill="black"/>
<rect x="52" y="19" width="1" height="1" fill="black"/>
<rect width="2" height="1" transform="matrix(-1 0 0 1 7 31)" fill="black"/>
<rect width="2" height="1" transform="matrix(-1 0 0 1 32 20)" fill="black"/>
<rect x="9" y="27" width="2" height="2" fill="black"/>
<rect width="2" height="2" transform="matrix(-1 0 0 1 55 26)" fill="black"/>
<rect width="2" height="2" transform="matrix(-1 0 0 1 17 15)" fill="black"/>
<rect x="16" y="20" width="2" height="2" fill="black"/>
<rect width="2" height="2" transform="matrix(-1 0 0 1 52 25)" fill="black"/>
</svg>
