<svg width="20" height="33" viewBox="0 0 20 33" fill="none" xmlns="http://www.w3.org/2000/svg">
<path fill-rule="evenodd" clip-rule="evenodd" d="M0 0H20V14V15V33H12V30H8V33H0V15V14V0ZM2 14H6V11H2V14ZM7 14H10V11H7V14ZM11 14H15V11H11V14ZM16 14H19V11H16V14ZM2 15V18H6V15H2ZM7 15V18H10V15H7ZM11 15V18H15V15H11ZM16 15V18H19V15H16ZM11 2H15V5H11V2ZM6 2H2V5H6V2ZM15 6H11V10H15V6ZM2 6H6V10H2V6ZM19 2H16V5H19V2ZM10 2H7V5H10V2ZM19 6H16V10H19V6ZM7 6H10V10H7V6ZM15 24H11V27H15V24ZM2 24H6V27H2V24ZM15 19H11V23H15V19ZM2 19H6V23H2V19ZM16 24H19V27H16V24ZM7 24H10V27H7V24ZM19 19H16V23H19V19ZM7 19H10V23H7V19Z" fill="black"/>
</svg>
