<svg width="15" height="20" viewBox="0 0 15 20" fill="none" xmlns="http://www.w3.org/2000/svg">
<rect x="7" y="18" width="2" height="2" fill="black"/>
<rect x="8" width="2" height="1" fill="black"/>
<rect y="4" width="2" height="1" fill="black"/>
<rect x="8" y="16" width="2" height="2" fill="black"/>
<rect x="9" y="18" width="2" height="2" fill="black"/>
<rect x="7" y="11" width="2" height="5" fill="black"/>
<rect x="10" y="7" width="2" height="2" fill="black"/>
<rect x="9" y="9" width="1" height="2" fill="black"/>
<rect x="2" y="9" width="1" height="1" fill="black"/>
<rect x="4" y="10" width="1" height="2" fill="black"/>
<rect x="13" y="9" width="1" height="2" fill="black"/>
<rect x="1" y="10" width="1" height="1" fill="black"/>
<rect x="6" y="7" width="1" height="4" fill="black"/>
<rect x="1" y="5" width="1" height="4" fill="black"/>
<rect x="3" y="6" width="1" height="4" fill="black"/>
<rect x="5" y="5" width="1" height="2" fill="black"/>
<rect x="4" y="5" width="2" height="1" fill="black"/>
<rect x="10" y="1" width="2" height="2" fill="black"/>
<rect x="4" width="2" height="2" fill="black"/>
<rect x="2" y="5" width="2" height="2" fill="black"/>
<rect x="2" y="1" width="6" height="5" fill="black"/>
<rect x="8" y="7" width="1" height="2" fill="black"/>
<rect x="14" y="6" width="1" height="3" fill="black"/>
<rect x="8" y="2" width="6" height="5" fill="black"/>
</svg>
