<svg width="20" height="20" viewBox="0 0 20 20" fill="none" xmlns="http://www.w3.org/2000/svg">
<path d="M4 0H10V5H4V0Z" fill="black"/>
<path d="M0 4H6V9H0V4Z" fill="black"/>
<path d="M8 18H10V20H8V18Z" fill="black"/>
<path d="M5 19H7V20H5V19Z" fill="black"/>
<path d="M1 9H3V10H1V9Z" fill="black"/>
<path d="M14 11H16V12H14V11Z" fill="black"/>
<path d="M10 0H12V1H10V0Z" fill="black"/>
<path d="M9 16H11V18H9V16Z" fill="black"/>
<path d="M10 17H12V19H10V17Z" fill="black"/>
<path d="M11 18H13V20H11V18Z" fill="black"/>
<path d="M10 15H12V17H10V15Z" fill="black"/>
<path d="M9 13H11V15H9V13Z" fill="black"/>
<path d="M10 11H12V13H10V11Z" fill="black"/>
<path d="M12 9H14V11H12V9Z" fill="black"/>
<path d="M12 7H14V9H12V7Z" fill="black"/>
<path d="M9 10H11V12H9V10Z" fill="black"/>
<path d="M9 9H11V11H9V9Z" fill="black"/>
<path d="M7 10H9V12H7V10Z" fill="black"/>
<path d="M6 8H7V10H6V8Z" fill="black"/>
<path d="M8 7H9V9H8V7Z" fill="black"/>
<path d="M7 5H8V7H7V5Z" fill="black"/>
<path d="M3 9H5V11H3V9Z" fill="black"/>
<path d="M6 5H8V6H6V5Z" fill="black"/>
<path d="M12 1H14V3H12V1Z" fill="black"/>
<path d="M16 3H18V5H16V3Z" fill="black"/>
<path d="M16 10H18V12H16V10Z" fill="black"/>
<path d="M3 3H5V5H3V3Z" fill="black"/>
<path d="M1 2H3V4H1V2Z" fill="black"/>
<path d="M10 7H11V9H10V7Z" fill="black"/>
<path d="M10 2H16V7H10V2Z" fill="black"/>
<path d="M14 5H20V10H14V5Z" fill="black"/>
</svg>
