<svg width="12" height="20" viewBox="0 0 12 20" fill="none" xmlns="http://www.w3.org/2000/svg">
<rect x="6" y="18" width="2" height="2" fill="black"/>
<rect x="6" y="2" width="1" height="16" fill="black"/>
<rect x="6" width="1" height="2" fill="black"/>
<rect x="10" y="11" width="2" height="1" fill="black"/>
<rect x="8" y="6" width="1" height="1" fill="black"/>
<rect x="3" y="6" width="2" height="1" fill="black"/>
<rect x="8" y="9" width="2" height="1" fill="black"/>
<rect x="2" y="9" width="2" height="1" fill="black"/>
<rect x="1" y="12" width="2" height="1" fill="black"/>
<rect x="5" y="5" width="1" height="1" fill="black"/>
<rect x="5" y="3" width="1" height="1" fill="black"/>
<rect x="7" y="5" width="1" height="1" fill="black"/>
<rect x="5" y="19" width="1" height="1" fill="black"/>
<rect x="4" y="8" width="1" height="1" fill="black"/>
<rect x="11" y="17" width="1" height="1" fill="black"/>
<rect x="10" y="13" width="1" height="1" fill="black"/>
<rect x="11" y="14" width="1" height="1" fill="black"/>
<rect x="8" y="8" width="1" height="1" fill="black"/>
<rect x="3" y="13" width="1" height="1" fill="black"/>
<rect y="15" width="1" height="1" fill="black"/>
<rect x="1" y="17" width="1" height="1" fill="black"/>
<rect x="1" y="11" width="1" height="1" fill="black"/>
<rect x="3" y="11" width="1" height="1" fill="black"/>
<rect x="8" y="10" width="1" height="1" fill="black"/>
<rect x="9" y="14" width="1" height="1" fill="black"/>
<rect x="7" y="7" width="1" height="1" fill="black"/>
<rect x="6" y="10" width="1" height="1" fill="black"/>
<rect x="1" y="14" width="2" height="2" fill="black"/>
<rect x="6" y="14" width="2" height="2" fill="black"/>
<rect x="8" y="12" width="2" height="2" fill="black"/>
<rect x="4" y="13" width="2" height="2" fill="black"/>
<rect x="6" y="11" width="2" height="2" fill="black"/>
<rect x="4" y="10" width="2" height="2" fill="black"/>
<rect x="2" y="16" width="9" height="1" fill="black"/>
</svg>
