<svg width="37" height="40" viewBox="0 0 37 40" fill="none" xmlns="http://www.w3.org/2000/svg">
<path d="M15 21H23V34H15V21Z" fill="black"/>
<path d="M21 14H23V22H21V14Z" fill="black"/>
<path d="M17 18H20V22H17V18Z" fill="black"/>
<path d="M15 16H18V22H15V16Z" fill="black"/>
<path d="M13 34H15V36H13V34Z" fill="black"/>
<path d="M21 34H23V36H21V34Z" fill="black"/>
<path d="M19 34H21V38H19V34Z" fill="black"/>
<path d="M17 34H19V36H17V34Z" fill="black"/>
<path d="M15 34H17V37H15V34Z" fill="black"/>
<path d="M13 36H14V37H13V36Z" fill="black"/>
<path d="M8 38H9V39H8V38Z" fill="black"/>
<path d="M15 38H16V39H15V38Z" fill="black"/>
<path d="M27 39H28V40H27V39Z" fill="black"/>
<path d="M11 36H13V38H11V36Z" fill="black"/>
<path d="M25 37H28V38H25V37Z" fill="black"/>
<path d="M23 36H26V37H23V36Z" fill="black"/>
<path d="M23 33H24V36H23V33Z" fill="black"/>
<path d="M22 11H24V14H22V11Z" fill="black"/>
<path d="M13 17H14V19H13V17Z" fill="black"/>
<path d="M12 15H13V17H12V15Z" fill="black"/>
<path d="M14 31H15V34H14V31Z" fill="black"/>
<path d="M14 19H15V22H14V19Z" fill="black"/>
<path d="M35 10H33V11H35V10Z" fill="black"/>
<path d="M35 6V4H34V6H35Z" fill="black"/>
<path d="M26 24V22H25V24H26Z" fill="black"/>
<path d="M36 13H34V14H36V13Z" fill="black"/>
<path d="M20 6V4H19V6H20Z" fill="black"/>
<path d="M22 6V4H21V6H22Z" fill="black"/>
<path d="M13 4H11V5H13V4Z" fill="black"/>
<path d="M12 1H14V2H12V1Z" fill="black"/>
<path d="M2 15H4V16H2V15Z" fill="black"/>
<path d="M24 5H27V7H24V5Z" fill="black"/>
<path d="M16 2H19V4H16V2Z" fill="black"/>
<path d="M29 19H33V21H29V19Z" fill="black"/>
<path d="M8 7H10V12H8V7Z" fill="black"/>
<path d="M8 7H6V9H8V7Z" fill="black"/>
<path d="M33 21H35V22H33V21Z" fill="black"/>
<path d="M26 19H28V20H26V19Z" fill="black"/>
<path d="M28 17H30V19H28V17Z" fill="black"/>
<path d="M26 12H30V16H26V12Z" fill="black"/>
<path d="M17 6H24V11H17V6Z" fill="black"/>
<path d="M10 12H12V13H10V12Z" fill="black"/>
<path d="M6 9H4V10H6V9Z" fill="black"/>
<path d="M5 21H7V22H5V21Z" fill="black"/>
<path d="M33 9H32V10H33V9Z" fill="black"/>
<path d="M34 3H33V4H34V3Z" fill="black"/>
<path d="M25 21H24V22H25V21Z" fill="black"/>
<path d="M1 14H0V15H1V14Z" fill="black"/>
<path d="M2 10H1V11H2V10Z" fill="black"/>
<path d="M3 8H2V9H3V8Z" fill="black"/>
<path d="M15 13H14V14H15V13Z" fill="black"/>
<path d="M1 11H0V12H1V11Z" fill="black"/>
<path d="M14 14H13V15H14V14Z" fill="black"/>
<path d="M34 14H33V15H34V14Z" fill="black"/>
<path d="M11 5H10V6H11V5Z" fill="black"/>
<path d="M5 2H6V3H5V2Z" fill="black"/>
<path d="M4 16H5V17H4V16Z" fill="black"/>
<path d="M27 7H28V8H27V7Z" fill="black"/>
<path d="M37 16H36V17H37V16Z" fill="black"/>
<path d="M14 7H13V8H14V7Z" fill="black"/>
<path d="M18 13H17V16H18V13Z" fill="black"/>
<path d="M24 17H23V20H24V17Z" fill="black"/>
<path d="M25 15H24V17H25V15Z" fill="black"/>
<path d="M26 14H25V15H26V14Z" fill="black"/>
<path d="M21 11H18V12H21V11Z" fill="black"/>
<path d="M19 15H18V18H19V15Z" fill="black"/>
<path d="M20 11H19V14H20V11Z" fill="black"/>
<path d="M21 15H20V18H21V15Z" fill="black"/>
<path d="M2 4H3V5H2V4Z" fill="black"/>
<path d="M1 18H2V19H1V18Z" fill="black"/>
<path d="M2 20H3V21H2V20Z" fill="black"/>
<path d="M5 19H6V20H5V19Z" fill="black"/>
<path d="M23 26H24V27H23V26Z" fill="black"/>
<path d="M21 36H22V37H21V36Z" fill="black"/>
<path d="M18 38H20V39H18V38Z" fill="black"/>
<path d="M19 39H21V40H19V39Z" fill="black"/>
<path d="M10 38H12V39H10V38Z" fill="black"/>
<path d="M28 38H30V39H28V38Z" fill="black"/>
<path d="M28 10H29V11H28V10Z" fill="black"/>
<path d="M36 12H35V13H36V12Z" fill="black"/>
<path d="M13 3H12V4H13V3Z" fill="black"/>
<path d="M12 0H13V1H12V0Z" fill="black"/>
<path d="M34 12H33V13H34V12Z" fill="black"/>
<path d="M11 3H10V4H11V3Z" fill="black"/>
<path d="M14 0H15V1H14V0Z" fill="black"/>
<path d="M3 11H2V12H3V11Z" fill="black"/>
<path d="M16 14H15V15H16V14Z" fill="black"/>
<path d="M26 2H25V3H26V2Z" fill="black"/>
<path d="M21 3H20V4H21V3Z" fill="black"/>
<path d="M15 6H14V7H15V6Z" fill="black"/>
<path d="M14 8H13V9H14V8Z" fill="black"/>
<path d="M27 11H26V12H27V11Z" fill="black"/>
<path d="M26 10H25V11H26V10Z" fill="black"/>
<path d="M33 6H32V7H33V6Z" fill="black"/>
<path d="M36 15H34V17H36V15Z" fill="black"/>
<path d="M13 6H11V8H13V6Z" fill="black"/>
<path d="M15 9H13V11H15V9Z" fill="black"/>
<path d="M3 3H5V5H3V3Z" fill="black"/>
<path d="M2 17H4V19H2V17Z" fill="black"/>
<path d="M24 8H27V10H24V8Z" fill="black"/>
<path d="M6 11H4V13H6V11Z" fill="black"/>
<path d="M29 2H27V4H29V2Z" fill="black"/>
<path d="M24 2H22V4H24V2Z" fill="black"/>
<path d="M17 7H15V9H17V7Z" fill="black"/>
<path d="M33 14H31V16H33V14Z" fill="black"/>
<path d="M10 5H8V7H10V5Z" fill="black"/>
<path d="M12 8H10V10H12V8Z" fill="black"/>
<path d="M6 2H8V4H6V2Z" fill="black"/>
<path d="M5 16H7V18H5V16Z" fill="black"/>
<path d="M28 7H30V9H28V7Z" fill="black"/>
<path d="M6 14H11V16H6V14Z" fill="black"/>
<path d="M29 5H31V7H29V5Z" fill="black"/>
<path d="M29 9H31V11H29V9Z" fill="black"/>
<path d="M16 11H18V13H16V11Z" fill="black"/>
<path d="M12 11H14V13H12V11Z" fill="black"/>
<path d="M8 17H12V19H8V17Z" fill="black"/>
<path d="M6 10H8V11H6V10Z" fill="black"/>
<path d="M29 1H31V2H29V1Z" fill="black"/>
<path d="M20 1H22V2H20V1Z" fill="black"/>
<path d="M33 11H31V13H33V11Z" fill="black"/>
<path d="M35 7H33V9H35V7Z" fill="black"/>
<path d="M10 2H8V4H10V2Z" fill="black"/>
<path d="M2 6H6V8H2V6Z" fill="black"/>
<path d="M13 4H17V6H13V4Z" fill="black"/>
<path d="M10 13H1V14H10V13Z" fill="black"/>
<path d="M33 4H24V5H33V4Z" fill="black"/>
</svg>
